<svg xmlns="http://www.w3.org/2000/svg" version="1.1" xmlns:xlink="http://www.w3.org/1999/xlink" width="512" height="512" x="0" y="0" viewBox="0 0 512 512" style="enable-background:new 0 0 512 512" xml:space="preserve" class=""><g transform="matrix(0.8999999999999999,0,0,0.8999999999999999,30.600003051757852,25.600000000000023)"><path fill="#eab308" d="M390.31 264.94c-27.26 0-49.44 22.18-49.44 49.44 0 27.24 22.18 49.41 49.44 49.41 27.24 0 49.4-22.17 49.4-49.41 0-27.26-22.16-49.44-49.4-49.44zm0 82.86c-18.45 0-33.45-14.99-33.45-33.42 0-18.44 15-33.45 33.45-33.45 18.42 0 33.42 15.01 33.42 33.45 0 18.43-15 33.42-33.42 33.42zm0-82.86c-27.26 0-49.44 22.18-49.44 49.44 0 27.24 22.18 49.41 49.44 49.41 27.24 0 49.4-22.17 49.4-49.41 0-27.26-22.16-49.44-49.4-49.44zm0 82.86c-18.45 0-33.45-14.99-33.45-33.42 0-18.44 15-33.45 33.45-33.45 18.42 0 33.42 15.01 33.42 33.45 0 18.43-15 33.42-33.42 33.42zm-80.44-157.36-65.45-36.56c-3.85-2.16-8.72-.78-10.88 3.08a7.992 7.992 0 0 0 3.08 10.87l52.96 29.59-52.96 29.59c-3.85 2.15-5.23 7.02-3.08 10.88a8.002 8.002 0 0 0 6.99 4.09c1.32 0 2.66-.32 3.89-1.01l65.45-36.57a7.99 7.99 0 0 0 4.1-6.98c0-2.89-1.57-5.56-4.1-6.98zm-95.28-60.39c-4.3-.99-8.6 1.7-9.58 6l-27.33 119.2c-.98 4.3 1.7 8.59 6.01 9.58.6.13 1.2.2 1.79.2 3.64 0 6.94-2.51 7.79-6.21l27.32-119.2c.99-4.3-1.7-8.59-6-9.57zm-52.91 96.96-52.96-29.59 52.96-29.59a7.992 7.992 0 0 0 3.08-10.87 7.986 7.986 0 0 0-10.88-3.08l-65.45 36.56a8.014 8.014 0 0 0-4.1 6.98c0 2.9 1.57 5.57 4.1 6.98l65.45 36.57c1.23.69 2.57 1.01 3.89 1.01 2.8 0 5.52-1.47 6.99-4.09 2.15-3.86.77-8.73-3.08-10.88zm0 0-52.96-29.59 52.96-29.59a7.992 7.992 0 0 0 3.08-10.87 7.986 7.986 0 0 0-10.88-3.08l-65.45 36.56a8.014 8.014 0 0 0-4.1 6.98c0 2.9 1.57 5.57 4.1 6.98l65.45 36.57c1.23.69 2.57 1.01 3.89 1.01 2.8 0 5.52-1.47 6.99-4.09 2.15-3.86.77-8.73-3.08-10.88zm52.91-96.96c-4.3-.99-8.6 1.7-9.58 6l-27.33 119.2c-.98 4.3 1.7 8.59 6.01 9.58.6.13 1.2.2 1.79.2 3.64 0 6.94-2.51 7.79-6.21l27.32-119.2c.99-4.3-1.7-8.59-6-9.57zm95.28 60.39-65.45-36.56c-3.85-2.16-8.72-.78-10.88 3.08a7.992 7.992 0 0 0 3.08 10.87l52.96 29.59-52.96 29.59c-3.85 2.15-5.23 7.02-3.08 10.88a8.002 8.002 0 0 0 6.99 4.09c1.32 0 2.66-.32 3.89-1.01l65.45-36.57a7.99 7.99 0 0 0 4.1-6.98c0-2.89-1.57-5.56-4.1-6.98zm80.44 74.5c-27.26 0-49.44 22.18-49.44 49.44 0 27.24 22.18 49.41 49.44 49.41 27.24 0 49.4-22.17 49.4-49.41 0-27.26-22.16-49.44-49.4-49.44zm0 82.86c-18.45 0-33.45-14.99-33.45-33.42 0-18.44 15-33.45 33.45-33.45 18.42 0 33.42 15.01 33.42 33.45 0 18.43-15 33.42-33.42 33.42zm0-82.86c-27.26 0-49.44 22.18-49.44 49.44 0 27.24 22.18 49.41 49.44 49.41 27.24 0 49.4-22.17 49.4-49.41 0-27.26-22.16-49.44-49.4-49.44zm0 82.86c-18.45 0-33.45-14.99-33.45-33.42 0-18.44 15-33.45 33.45-33.45 18.42 0 33.42 15.01 33.42 33.45 0 18.43-15 33.42-33.42 33.42zm-80.44-157.36-65.45-36.56c-3.85-2.16-8.72-.78-10.88 3.08a7.992 7.992 0 0 0 3.08 10.87l52.96 29.59-52.96 29.59c-3.85 2.15-5.23 7.02-3.08 10.88a8.002 8.002 0 0 0 6.99 4.09c1.32 0 2.66-.32 3.89-1.01l65.45-36.57a7.99 7.99 0 0 0 4.1-6.98c0-2.89-1.57-5.56-4.1-6.98zm-95.28-60.39c-4.3-.99-8.6 1.7-9.58 6l-27.33 119.2c-.98 4.3 1.7 8.59 6.01 9.58.6.13 1.2.2 1.79.2 3.64 0 6.94-2.51 7.79-6.21l27.32-119.2c.99-4.3-1.7-8.59-6-9.57zm-49.83 26.91a7.986 7.986 0 0 0-10.88-3.08l-65.45 36.56a8.014 8.014 0 0 0-4.1 6.98c0 2.9 1.57 5.57 4.1 6.98l65.45 36.57c1.23.69 2.57 1.01 3.89 1.01 2.8 0 5.52-1.47 6.99-4.09 2.15-3.86.77-8.73-3.08-10.88l-52.96-29.59 52.96-29.59a7.992 7.992 0 0 0 3.08-10.87zm341.7 135.78-13.29-4.3-4.12-1.35c-2.23-8.09-5.46-15.88-9.65-23.25l8.34-16.35a8.01 8.01 0 0 0-1.48-9.3l-19.8-19.77a7.995 7.995 0 0 0-9.28-1.48l-16.37 8.32c-7.33-4.16-15.12-7.4-23.24-9.65l-5.66-17.42a7.972 7.972 0 0 0-7.6-5.53h-6.01v-83.71c0-18.21-14.83-33.02-33.05-33.02H33.06C14.83 75.93 0 90.74 0 108.95v240.38c0 18.23 14.83 33.05 33.06 33.05h122.35l-13.49 37.7h-26.46c-4.42 0-8 3.58-8 8 0 4.41 3.58 7.99 8 7.99h167.38c4.42 0 8-3.58 8-7.99 0-4.42-3.58-8-8-8h-26.46l-13.49-37.7h49.48c-.93 2.84-.21 6 1.95 8.16l19.8 19.8a7.992 7.992 0 0 0 9.29 1.47l16.35-8.33c7.33 4.18 15.13 7.41 23.26 9.65l5.65 17.41a7.982 7.982 0 0 0 7.6 5.53h28.04c3.47 0 6.54-2.23 7.6-5.53l4.3-13.3 1.35-4.11c8.14-2.24 15.93-5.47 23.26-9.65l16.35 8.33c3.09 1.58 6.84.98 9.29-1.47l19.8-19.8a8.01 8.01 0 0 0 1.48-9.3l-8.34-16.35a102.4 102.4 0 0 0 9.64-23.23l17.44-5.68a7.995 7.995 0 0 0 5.52-7.6v-28.03c0-3.47-2.24-6.54-5.54-7.61zM15.99 108.95c0-9.39 7.66-17.03 17.07-17.03h332.19c9.41 0 17.06 7.64 17.06 17.03v83.71h-6.04c-3.46 0-6.54 2.23-7.6 5.53l-4.3 13.3-1.35 4.12c-8.13 2.25-15.92 5.49-23.25 9.65l-16.37-8.32a7.977 7.977 0 0 0-9.27 1.48l-19.81 19.77a8.01 8.01 0 0 0-1.48 9.3l8.35 16.35c-4.17 7.33-7.4 15.12-9.65 23.25l-17.42 5.65a7.994 7.994 0 0 0-5.53 7.61v2.61H15.99zM158.9 420.08l13.49-37.7h53.52l13.49 37.7zm141.52-53.68H33.06c-9.41 0-17.07-7.66-17.07-17.07v-30.39h252.6v9.44c0 3.46 2.22 6.53 5.51 7.6l17.44 5.68c2.25 8.12 5.48 15.9 9.65 23.23zm195.59-43.82-16.1 5.23a7.99 7.99 0 0 0-5.33 5.81 86.131 86.131 0 0 1-11.08 26.71 7.999 7.999 0 0 0-.35 7.88l7.7 15.12-11.6 11.6-15.12-7.71a7.97 7.97 0 0 0-7.89.37 85.252 85.252 0 0 1-26.67 11.06 8.007 8.007 0 0 0-5.83 5.31l-5.25 16.12h-16.4l-5.25-16.12a7.99 7.99 0 0 0-5.83-5.31 85.252 85.252 0 0 1-26.67-11.06 7.97 7.97 0 0 0-7.89-.37l-15.12 7.71-11.6-11.6 2.57-5.05c.07-.12.13-.24.19-.37l4.95-9.7a8 8 0 0 0-.36-7.88A86.615 86.615 0 0 1 306 333.62a7.971 7.971 0 0 0-5.33-5.81l-16.1-5.23v-16.42l16.13-5.24a8.021 8.021 0 0 0 5.3-5.81 86.615 86.615 0 0 1 11.08-26.71 8 8 0 0 0 .36-7.88l-7.71-15.12 11.6-11.58 15.12 7.69a7.975 7.975 0 0 0 7.88-.36c8.24-5.17 17.22-8.9 26.7-11.08a7.985 7.985 0 0 0 5.81-5.3l5.25-16.12h16.4l5.25 16.12a7.985 7.985 0 0 0 5.81 5.3 86.716 86.716 0 0 1 26.71 11.08 7.982 7.982 0 0 0 7.87.36l15.12-7.69 11.6 11.58-7.7 15.12a7.999 7.999 0 0 0 .35 7.88c5.22 8.3 8.94 17.28 11.08 26.69a8.007 8.007 0 0 0 5.31 5.83l16.12 5.24zm-105.7-57.64c-27.26 0-49.44 22.18-49.44 49.44 0 27.24 22.18 49.41 49.44 49.41 27.24 0 49.4-22.17 49.4-49.41 0-27.26-22.16-49.44-49.4-49.44zm0 82.86c-18.45 0-33.45-14.99-33.45-33.42 0-18.44 15-33.45 33.45-33.45 18.42 0 33.42 15.01 33.42 33.45 0 18.43-15 33.42-33.42 33.42zm-76.34-150.38c0-2.89-1.57-5.56-4.1-6.98l-65.45-36.56c-3.85-2.16-8.72-.78-10.88 3.08a7.992 7.992 0 0 0 3.08 10.87l52.96 29.59-52.96 29.59c-3.85 2.15-5.23 7.02-3.08 10.88a8.002 8.002 0 0 0 6.99 4.09c1.32 0 2.66-.32 3.89-1.01l65.45-36.57a7.99 7.99 0 0 0 4.1-6.98zm-99.38-67.37c-4.3-.99-8.6 1.7-9.58 6l-27.33 119.2c-.98 4.3 1.7 8.59 6.01 9.58.6.13 1.2.2 1.79.2 3.64 0 6.94-2.51 7.79-6.21l27.32-119.2c.99-4.3-1.7-8.59-6-9.57zm-49.83 26.91a7.986 7.986 0 0 0-10.88-3.08l-65.45 36.56a8.014 8.014 0 0 0-4.1 6.98c0 2.9 1.57 5.57 4.1 6.98l65.45 36.57c1.23.69 2.57 1.01 3.89 1.01 2.8 0 5.52-1.47 6.99-4.09 2.15-3.86.77-8.73-3.08-10.88l-52.96-29.59 52.96-29.59a7.992 7.992 0 0 0 3.08-10.87zm-3.08 70.05-52.96-29.59 52.96-29.59a7.992 7.992 0 0 0 3.08-10.87 7.986 7.986 0 0 0-10.88-3.08l-65.45 36.56a8.014 8.014 0 0 0-4.1 6.98c0 2.9 1.57 5.57 4.1 6.98l65.45 36.57c1.23.69 2.57 1.01 3.89 1.01 2.8 0 5.52-1.47 6.99-4.09 2.15-3.86.77-8.73-3.08-10.88zm52.91-96.96c-4.3-.99-8.6 1.7-9.58 6l-27.33 119.2c-.98 4.3 1.7 8.59 6.01 9.58.6.13 1.2.2 1.79.2 3.64 0 6.94-2.51 7.79-6.21l27.32-119.2c.99-4.3-1.7-8.59-6-9.57zm95.28 60.39-65.45-36.56c-3.85-2.16-8.72-.78-10.88 3.08a7.992 7.992 0 0 0 3.08 10.87l52.96 29.59-52.96 29.59c-3.85 2.15-5.23 7.02-3.08 10.88a8.002 8.002 0 0 0 6.99 4.09c1.32 0 2.66-.32 3.89-1.01l65.45-36.57a7.99 7.99 0 0 0 4.1-6.98c0-2.89-1.57-5.56-4.1-6.98zm80.44 74.5c-27.26 0-49.44 22.18-49.44 49.44 0 27.24 22.18 49.41 49.44 49.41 27.24 0 49.4-22.17 49.4-49.41 0-27.26-22.16-49.44-49.4-49.44zm0 82.86c-18.45 0-33.45-14.99-33.45-33.42 0-18.44 15-33.45 33.45-33.45 18.42 0 33.42 15.01 33.42 33.45 0 18.43-15 33.42-33.42 33.42zm0-82.86c-27.26 0-49.44 22.18-49.44 49.44 0 27.24 22.18 49.41 49.44 49.41 27.24 0 49.4-22.17 49.4-49.41 0-27.26-22.16-49.44-49.4-49.44zm0 82.86c-18.45 0-33.45-14.99-33.45-33.42 0-18.44 15-33.45 33.45-33.45 18.42 0 33.42 15.01 33.42 33.45 0 18.43-15 33.42-33.42 33.42zm-80.44-157.36-65.45-36.56c-3.85-2.16-8.72-.78-10.88 3.08a7.992 7.992 0 0 0 3.08 10.87l52.96 29.59-52.96 29.59c-3.85 2.15-5.23 7.02-3.08 10.88a8.002 8.002 0 0 0 6.99 4.09c1.32 0 2.66-.32 3.89-1.01l65.45-36.57a7.99 7.99 0 0 0 4.1-6.98c0-2.89-1.57-5.56-4.1-6.98zm-95.28-60.39c-4.3-.99-8.6 1.7-9.58 6l-27.33 119.2c-.98 4.3 1.7 8.59 6.01 9.58.6.13 1.2.2 1.79.2 3.64 0 6.94-2.51 7.79-6.21l27.32-119.2c.99-4.3-1.7-8.59-6-9.57zm-52.91 96.96-52.96-29.59 52.96-29.59a7.992 7.992 0 0 0 3.08-10.87 7.986 7.986 0 0 0-10.88-3.08l-65.45 36.56a8.014 8.014 0 0 0-4.1 6.98c0 2.9 1.57 5.57 4.1 6.98l65.45 36.57c1.23.69 2.57 1.01 3.89 1.01 2.8 0 5.52-1.47 6.99-4.09 2.15-3.86.77-8.73-3.08-10.88zm148.19-36.57-65.45-36.56c-3.85-2.16-8.72-.78-10.88 3.08a7.992 7.992 0 0 0 3.08 10.87l52.96 29.59-52.96 29.59c-3.85 2.15-5.23 7.02-3.08 10.88a8.002 8.002 0 0 0 6.99 4.09c1.32 0 2.66-.32 3.89-1.01l65.45-36.57a7.99 7.99 0 0 0 4.1-6.98c0-2.89-1.57-5.56-4.1-6.98zm-148.19 36.57-52.96-29.59 52.96-29.59a7.992 7.992 0 0 0 3.08-10.87 7.986 7.986 0 0 0-10.88-3.08l-65.45 36.56a8.014 8.014 0 0 0-4.1 6.98c0 2.9 1.57 5.57 4.1 6.98l65.45 36.57c1.23.69 2.57 1.01 3.89 1.01 2.8 0 5.52-1.47 6.99-4.09 2.15-3.86.77-8.73-3.08-10.88zm52.91-96.96c-4.3-.99-8.6 1.7-9.58 6l-27.33 119.2c-.98 4.3 1.7 8.59 6.01 9.58.6.13 1.2.2 1.79.2 3.64 0 6.94-2.51 7.79-6.21l27.32-119.2c.99-4.3-1.7-8.59-6-9.57z" opacity="1" data-original="#428dff" class=""></path><g fill="#e8edfc"><path d="M239.4 420.08h-80.5l13.49-37.7h53.52zM301.19 364.89l-.77 1.51H33.06c-9.41 0-17.07-7.66-17.07-17.07v-30.39h252.6v9.44c0 3.46 2.22 6.53 5.51 7.6l17.44 5.68c2.25 8.12 5.48 15.9 9.65 23.23zM479.89 300.92a8.007 8.007 0 0 1-5.31-5.83c-2.14-9.41-5.86-18.39-11.08-26.69a7.999 7.999 0 0 1-.35-7.88l7.7-15.12-11.6-11.58-15.12 7.69a7.982 7.982 0 0 1-7.87-.36 86.716 86.716 0 0 0-26.71-11.08 7.985 7.985 0 0 1-5.81-5.3l-5.25-16.12h-16.4l-5.25 16.12a7.985 7.985 0 0 1-5.81 5.3 86.661 86.661 0 0 0-26.7 11.08 7.975 7.975 0 0 1-7.88.36l-15.12-7.69-11.6 11.58 7.71 15.12a8 8 0 0 1-.36 7.88A86.615 86.615 0 0 0 306 295.11a8.021 8.021 0 0 1-5.3 5.81l-16.13 5.24v16.42l16.1 5.23c2.68.86 4.7 3.07 5.33 5.81a86.615 86.615 0 0 0 11.08 26.71 8 8 0 0 1 .36 7.88l-4.95 9.7c-.06.13-.12.25-.19.37l-2.57 5.05 11.6 11.6 15.12-7.71a7.97 7.97 0 0 1 7.89.37c8.23 5.19 17.2 8.91 26.67 11.06a7.99 7.99 0 0 1 5.83 5.31l5.25 16.12h16.4l5.25-16.12a8.007 8.007 0 0 1 5.83-5.31 85.252 85.252 0 0 0 26.67-11.06 7.97 7.97 0 0 1 7.89-.37l15.12 7.71 11.6-11.6-7.7-15.12a7.999 7.999 0 0 1 .35-7.88 86.131 86.131 0 0 0 11.08-26.71 7.99 7.99 0 0 1 5.33-5.81l16.1-5.23v-16.42zm-89.58 62.87c-27.26 0-49.44-22.17-49.44-49.41 0-27.26 22.18-49.44 49.44-49.44 27.24 0 49.4 22.18 49.4 49.44 0 27.24-22.16 49.41-49.4 49.41z" fill="#e8edfc" opacity="1" data-original="#e8edfc" class=""></path></g></g></svg>